<svg width="24" height="24" viewBox="0 0 24 24" fill="none" xmlns="http://www.w3.org/2000/svg">
<path d="M7.64133 4.21545C7.85132 3.30871 8.65903 2.66666 9.58977 2.66666H15.4715C16.439 2.66666 17.2678 3.35931 17.4397 4.3115L18.8708 12.2422C18.9213 12.522 19.0308 12.7877 19.1921 13.0218L21.8402 16.8653C22.7544 18.1921 21.8045 20 20.1933 20H4.0807C2.41794 20 1.4813 18.0889 2.49996 16.7747L5.41548 13.0134C5.59253 12.7849 5.71797 12.5209 5.78317 12.2393L7.64133 4.21545Z" fill="white"/>
<ellipse cx="12.6316" cy="2.66667" rx="2.52632" ry="2.66667" fill="white"/>
<path d="M15.1579 21.3333C15.1579 21.6835 15.0925 22.0303 14.9656 22.3538C14.8386 22.6774 14.6525 22.9713 14.4179 23.2189C14.1834 23.4666 13.9049 23.663 13.5983 23.797C13.2918 23.931 12.9633 24 12.6316 24C12.2998 24 11.9713 23.931 11.6648 23.797C11.3583 23.663 11.0798 23.4666 10.8452 23.2189C10.6106 22.9713 10.4245 22.6774 10.2976 22.3538C10.1706 22.0303 10.1053 21.6835 10.1053 21.3333L12.6316 21.3333H15.1579Z" fill="white"/>
</svg>
