<svg width="19" height="18" viewBox="0 0 19 18" fill="none" xmlns="http://www.w3.org/2000/svg">
<path d="M5.96053 3.52509C6.17938 2.62981 6.98169 2 7.90333 2H11.9164C12.8767 2 13.7014 2.68247 13.8811 3.62578L14.9162 9.06007C14.9714 9.34977 15.09 9.62368 15.2634 9.86219L16.6899 11.8237C17.6513 13.1456 16.707 15 15.0725 15H4.22049C2.53323 15 1.60414 13.0394 2.67257 11.7335L4.21281 9.85101C4.40187 9.61994 4.5368 9.34947 4.60769 9.05944L5.96053 3.52509Z" fill="#3D3D3D"/>
<circle cx="10" cy="2" r="2" fill="#3D3D3D"/>
<path d="M12 16C12 16.2626 11.9483 16.5227 11.8478 16.7654C11.7472 17.008 11.5999 17.2285 11.4142 17.4142C11.2285 17.5999 11.008 17.7472 10.7654 17.8478C10.5227 17.9483 10.2626 18 10 18C9.73736 18 9.47728 17.9483 9.23463 17.8478C8.99198 17.7472 8.7715 17.5999 8.58579 17.4142C8.40007 17.2285 8.25275 17.008 8.15224 16.7654C8.05173 16.5227 8 16.2626 8 16L10 16H12Z" fill="#3D3D3D"/>
</svg>
