<svg width="150" height="150" viewBox="0 0 150 150" fill="none" xmlns="http://www.w3.org/2000/svg">
<rect width="150" height="150" rx="20" fill="white"/>
<path d="M117 81.8905C117 103.851 98.3914 122 75 122C51.6086 122 33 103.851 33 81.8905C33 59.9301 51.6086 41.781 75 41.781C98.3914 41.781 117 59.9301 117 81.8905Z" fill="white" stroke="#3D3D3D" stroke-width="10"/>
<rect x="60.9" y="24" width="28.2" height="8.27007" rx="4.13504" fill="#3D3D3D"/>
<rect width="15.455" height="8.38971" rx="4.19485" transform="matrix(0.823199 0.567753 -0.59934 0.800495 102.019 31.1968)" fill="#3D3D3D"/>
<rect x="71.8666" y="54.0729" width="13.5328" height="6.26667" rx="3.13333" transform="rotate(-90 71.8666 54.0729)" fill="#3D3D3D"/>
<rect x="71.8666" y="54.0729" width="13.5328" height="6.26667" rx="3.13333" transform="rotate(-90 71.8666 54.0729)" fill="#3D3D3D"/>
<rect width="35.5126" height="9.0167" rx="4.50835" transform="matrix(-0.632269 -0.774749 0.799323 -0.600901 74.2167 87.9052)" fill="#3D3D3D"/>
<rect width="24.3985" height="8.41645" rx="4.20823" transform="matrix(0.636576 -0.771214 0.796027 0.605261 69.0836 82.811)" fill="#3D3D3D"/>
<rect x="71.8666" y="123.241" width="13.5328" height="6.26667" rx="3.13333" transform="rotate(-90 71.8666 123.241)" fill="#3D3D3D"/>
<rect x="31.9167" y="78.1313" width="14.1" height="6.0146" rx="3.0073" fill="#3D3D3D"/>
<rect x="103.983" y="78.1313" width="14.1" height="6.0146" rx="3.0073" fill="#3D3D3D"/>
</svg>
